<svg width="126" height="126" viewBox="0 0 126 126" fill="none" xmlns="http://www.w3.org/2000/svg">
<path d="M63 73.5C74.5815 73.5 84 64.0815 84 52.5C84 40.9185 74.5815 31.5 63 31.5C51.4185 31.5 42 40.9185 42 52.5C42 64.0815 51.4185 73.5 63 73.5ZM63 42C68.7908 42 73.5 46.7092 73.5 52.5C73.5 58.2908 68.7908 63 63 63C57.2092 63 52.5 58.2908 52.5 52.5C52.5 46.7092 57.2092 42 63 42Z" fill="white"/>
<path d="M59.955 114.523C60.8435 115.158 61.9081 115.499 63 115.499C64.0918 115.499 65.1564 115.158 66.045 114.523C67.641 113.395 105.152 86.31 105 52.5C105 29.3423 86.1577 10.5 63 10.5C39.8422 10.5 21 29.3422 21 52.4737C20.8477 86.31 58.359 113.395 59.955 114.523ZM63 21C80.3722 21 94.5 35.1278 94.5 52.5263C94.6102 75.8258 71.463 96.747 63 103.609C54.5422 96.7418 31.3897 75.8152 31.5 52.5C31.5 35.1277 45.6277 21 63 21Z" fill="white"/>
</svg>
