<svg width="138" height="138" viewBox="0 0 138 138" fill="none" xmlns="http://www.w3.org/2000/svg">
<path d="M74.75 68.9998H86.25C87.775 68.9998 89.2375 69.6056 90.3159 70.6839C91.3942 71.7623 92 73.2248 92 74.7498C92 76.2748 91.3942 77.7373 90.3159 78.8157C89.2375 79.894 87.775 80.4998 86.25 80.4998H69C67.475 80.4998 66.0125 79.894 64.9341 78.8157C63.8558 77.7373 63.25 76.2748 63.25 74.7498V45.9998C63.25 44.4748 63.8558 43.0123 64.9341 41.9339C66.0125 40.8556 67.475 40.2498 69 40.2498C70.525 40.2498 71.9875 40.8556 73.0659 41.9339C74.1442 43.0123 74.75 44.4748 74.75 45.9998V68.9998ZM118.623 60.0183C120.907 67.7385 121.359 75.8853 119.942 83.8108C118.526 91.7363 115.279 99.2219 110.461 105.672C105.643 112.123 99.3865 117.36 92.1889 120.968C84.9913 124.575 77.0512 126.454 69 126.454C60.9488 126.454 53.0087 124.575 45.8111 120.968C38.6135 117.36 32.3569 112.123 27.5389 105.672C22.7209 99.2219 19.4744 91.7363 18.0576 83.8108C16.6408 75.8853 17.0927 67.7385 19.3775 60.0183C16.6744 57.1653 14.5849 53.7884 13.2382 50.0961C11.8915 46.4039 11.3161 42.4747 11.5476 38.5513C11.7791 34.628 12.8125 30.7937 14.5841 27.2854C16.3556 23.7772 18.8276 20.6694 21.8475 18.154C24.8673 15.6387 28.3708 13.7692 32.1415 12.6611C35.9123 11.5529 39.8702 11.2297 43.7708 11.7113C47.6713 12.1929 51.4317 13.4692 54.8197 15.4612C58.2076 17.4532 61.1512 20.1187 63.4685 23.2931C67.1458 22.9022 70.8542 22.9022 74.5315 23.2931C76.8488 20.1187 79.7924 17.4532 83.1803 15.4612C86.5683 13.4692 90.3287 12.1929 94.2293 11.7113C98.1298 11.2297 102.088 11.5529 105.858 12.6611C109.629 13.7692 113.133 15.6387 116.153 18.154C119.172 20.6694 121.644 23.7772 123.416 27.2854C125.188 30.7937 126.221 34.628 126.452 38.5513C126.684 42.4747 126.109 46.4039 124.762 50.0961C123.415 53.7884 121.326 57.1653 118.623 60.0183ZM113.229 47.8686C114.942 44.3965 115.437 40.4492 114.634 36.6618C113.832 32.8743 111.779 29.4669 108.805 26.9878C105.831 24.5087 102.11 23.1019 98.2401 22.9939C94.3701 22.8859 90.5763 24.0829 87.469 26.3923C98.1949 30.5044 107.254 38.0574 113.229 47.8686ZM50.5253 26.3923C47.418 24.0829 43.6241 22.8859 39.7541 22.9939C35.8841 23.1019 32.1629 24.5087 29.1893 26.9878C26.2157 29.4669 24.1624 32.8743 23.36 36.6618C22.5575 40.4492 23.0525 44.3965 24.7653 47.8686C30.7398 38.0574 39.7993 30.5044 50.5253 26.3923ZM69 115C74.2857 115 79.5197 113.959 84.403 111.936C89.2864 109.913 93.7235 106.948 97.4611 103.211C101.199 99.4733 104.163 95.0362 106.186 90.1528C108.209 85.2695 109.25 80.0355 109.25 74.7498C109.25 69.4641 108.209 64.2302 106.186 59.3468C104.163 54.4634 101.199 50.0263 97.4611 46.2888C93.7235 42.5512 89.2864 39.5864 84.403 37.5637C79.5197 35.5409 74.2857 34.4998 69 34.4998C58.325 34.4998 48.0873 38.7404 40.539 46.2888C32.9906 53.8371 28.75 64.0748 28.75 74.7498C28.75 85.4248 32.9906 95.6625 40.539 103.211C48.0873 110.759 58.325 115 69 115Z" fill="white"/>
</svg>
