<svg width="126" height="126" viewBox="0 0 126 126" fill="none" xmlns="http://www.w3.org/2000/svg">
<path d="M61.8975 60.375H51.03V42.9975H63.9975C70.6125 42.9975 74.2875 45.9375 74.2875 51.345C74.2875 57.225 69.93 60.375 61.8975 60.375ZM63.84 66.3075H51.03V85.4175H64.47C72.66 85.4175 76.965 82.11 76.965 75.81C76.965 69.51 72.5025 66.3075 63.84 66.3075ZM115.5 27.8775V98.1225C115.5 107.625 107.625 115.5 98.1225 115.5H27.8775C18.375 115.5 10.5 107.625 10.5 98.1225V27.8775C10.5 18.375 18.375 10.5 27.8775 10.5H98.1225C107.625 10.5 115.5 18.375 115.5 27.8775ZM84 76.125C84 68.88 79.17 63.6825 71.7675 62.7375V62.4225C77.0175 61.4775 81.165 56.2275 81.165 50.5575C81.165 42.42 74.865 37.0125 65.625 37.0125H44.2575V91.4025H65.4675C77.07 91.4025 84 85.68 84 76.125Z" fill="#155BD5"/>
</svg>
