<svg width="47" height="47" viewBox="0 0 47 47" fill="none" xmlns="http://www.w3.org/2000/svg">
<path d="M12.69 17.2854L5.23247 23.5L12.69 29.7147C12.8425 29.8367 12.9691 29.988 13.0624 30.1595C13.1557 30.3311 13.2139 30.5196 13.2335 30.7139C13.2531 30.9082 13.2337 31.1045 13.1766 31.2912C13.1194 31.478 13.0256 31.6514 12.9006 31.8015C12.7755 31.9515 12.6219 32.0751 12.4485 32.1651C12.2751 32.255 12.0856 32.3095 11.8909 32.3252C11.6963 32.341 11.5004 32.3178 11.3148 32.257C11.1292 32.1962 10.9576 32.099 10.81 31.9711L1.99755 24.6273C1.83219 24.4895 1.69915 24.317 1.60786 24.122C1.51656 23.927 1.46924 23.7144 1.46924 23.4991C1.46924 23.2839 1.51656 23.0712 1.60786 22.8763C1.69915 22.6813 1.83219 22.5088 1.99755 22.3709L10.81 15.0272C11.1095 14.7779 11.4957 14.6578 11.8838 14.6932C12.2718 14.7287 12.6298 14.9168 12.8791 15.2163C13.1285 15.5158 13.2486 15.902 13.2131 16.29C13.1777 16.678 12.9895 17.0361 12.69 17.2854ZM45.0025 22.3709L36.19 15.0272C36.0418 14.9038 35.8706 14.8107 35.6864 14.7534C35.5022 14.6961 35.3085 14.6757 35.1163 14.6932C34.9242 14.7108 34.7374 14.766 34.5666 14.8558C34.3958 14.9455 34.2444 15.068 34.1209 15.2163C33.8716 15.5158 33.7515 15.902 33.787 16.29C33.8224 16.678 34.0106 17.0361 34.31 17.2854L41.7676 23.5L34.31 29.7147C34.1576 29.8367 34.031 29.988 33.9377 30.1595C33.8444 30.3311 33.7862 30.5196 33.7666 30.7139C33.747 30.9082 33.7663 31.1045 33.8235 31.2912C33.8807 31.478 33.9745 31.6514 34.0995 31.8015C34.2246 31.9515 34.3782 32.0751 34.5516 32.1651C34.725 32.255 34.9145 32.3095 35.1092 32.3252C35.3038 32.341 35.4997 32.3178 35.6853 32.257C35.8709 32.1962 36.0425 32.099 36.19 31.9711L45.0025 24.6273C45.1679 24.4895 45.3009 24.317 45.3922 24.122C45.4835 23.927 45.5309 23.7144 45.5309 23.4991C45.5309 23.2839 45.4835 23.0712 45.3922 22.8763C45.3009 22.6813 45.1679 22.5088 45.0025 22.3709ZM29.8763 5.96317C29.695 5.89735 29.5025 5.86788 29.3098 5.87645C29.1171 5.88502 28.9279 5.93146 28.7532 6.01313C28.5785 6.09479 28.4215 6.21007 28.2913 6.35239C28.1611 6.49471 28.0602 6.66128 27.9944 6.84259L16.2444 39.1551C16.1783 39.3365 16.1486 39.5292 16.1571 39.7221C16.1655 39.915 16.2119 40.1043 16.2936 40.2793C16.3752 40.4542 16.4906 40.6114 16.6331 40.7417C16.7755 40.872 16.9423 40.9729 17.1238 41.0388C17.2847 41.0959 17.4543 41.1251 17.625 41.125C17.9267 41.1251 18.221 41.0322 18.468 40.8591C18.715 40.686 18.9027 40.441 19.0057 40.1575L30.7557 7.84501C30.8215 7.6637 30.851 7.47121 30.8424 7.27851C30.8338 7.08582 30.7874 6.8967 30.7057 6.72195C30.6241 6.54721 30.5088 6.39026 30.3665 6.26007C30.2241 6.12987 30.0576 6.02899 29.8763 5.96317Z" fill="#155BD5"/>
</svg>
