<svg width="152" height="152" viewBox="0 0 152 152" fill="none" xmlns="http://www.w3.org/2000/svg">
<path d="M137.987 67.9785L52.44 15.6453C50.9977 14.7622 49.3458 14.28 47.6548 14.2487C45.9639 14.2174 44.2953 14.638 42.8213 15.4672C41.3613 16.2835 40.1451 17.474 39.2977 18.9161C38.4504 20.3583 38.0024 22.0002 38 23.6728V128.327C38.011 130.836 39.0179 133.238 40.7993 135.005C42.5807 136.772 44.9909 137.76 47.5 137.75C49.2513 137.749 50.9686 137.267 52.4638 136.355L137.987 84.0216C139.362 83.1837 140.498 82.0063 141.287 80.6026C142.075 79.1988 142.489 77.6159 142.489 76.006C142.489 74.396 142.075 72.8131 141.287 71.4094C140.498 70.0056 139.362 68.8283 137.987 67.9903V67.9785ZM47.5 128.214V23.75L132.899 76L47.5 128.214Z" fill="#155BD5"/>
</svg>
