<svg width="31" height="31" viewBox="0 0 31 31" fill="none" xmlns="http://www.w3.org/2000/svg">
<g clip-path="url(#clip0_602_2445)">
<path d="M9.72075 8.61373L22.3865 21.2794M14.5922 3.74231C15.4198 2.89264 16.408 2.21582 17.4993 1.75113C18.5906 1.28644 19.7633 1.04314 20.9494 1.03535C22.1355 1.02756 23.3113 1.25543 24.4087 1.70574C25.506 2.15604 26.5029 2.81982 27.3417 3.65854C28.1804 4.49726 28.8442 5.49421 29.2945 6.59153C29.7448 7.68885 29.9726 8.86469 29.9649 10.0508C29.9571 11.2369 29.7138 12.4096 29.2491 13.5009C28.7844 14.5923 28.1076 15.5804 27.2579 16.408L16.4079 27.258C15.5803 28.1077 14.5921 28.7845 13.5008 29.2492C12.4095 29.7139 11.2368 29.9572 10.0507 29.965C8.86457 29.9728 7.68873 29.7449 6.59141 29.2946C5.49409 28.8443 4.49713 28.1805 3.65842 27.3418C2.8197 26.5031 2.15592 25.5061 1.70561 24.4088C1.25531 23.3115 1.02743 22.1356 1.03523 20.9495C1.04302 19.7634 1.28632 18.5907 1.75101 17.4994C2.2157 16.4081 2.89252 15.4199 3.74218 14.5923L14.5922 3.74231Z" stroke="#155BD5" stroke-width="2" stroke-linecap="round" stroke-linejoin="round"/>
</g>
<defs>
<clipPath id="clip0_602_2445">
<rect width="31" height="31" fill="white"/>
</clipPath>
</defs>
</svg>
